<svg width="260" height="51" viewBox="0 0 260 51" fill="none" xmlns="http://www.w3.org/2000/svg">
<path d="M30.7925 13.6855C27.2641 13.6855 24.0566 15.1289 21.9717 17.4811C20.261 15.022 17.5346 13.6855 14.1132 13.6855C11.2264 13.6855 8.7673 14.6478 6.94969 16.3585C6.52201 14.7547 5.23899 13.6855 3.58176 13.6855C1.55031 13.6855 0 15.2358 0 17.3208V37.6887C0 39.7736 1.55031 41.3774 3.63522 41.3774C5.66667 41.3774 7.21698 39.827 7.21698 37.6887V25.3396C7.21698 22.239 9.14151 20.2075 12.0818 20.2075C14.9151 20.2075 16.7862 22.1855 16.7862 25.3396V37.6887C16.7862 39.7736 18.3365 41.3774 20.4214 41.3774C22.4528 41.3774 24.0031 39.827 24.0031 37.6887V25.1792C24.0031 22.239 25.9811 20.2075 28.8679 20.2075C31.7547 20.2075 33.5723 22.1855 33.5723 25.3396V37.6887C33.5723 39.7736 35.1226 41.3774 37.2075 41.3774C39.239 41.3774 40.7893 39.827 40.7893 37.6887V24.3239C40.7893 17.8019 36.9402 13.6855 30.7925 13.6855Z" fill="#78379B"/>
<path d="M60.334 13.6855C52.3686 13.6855 46.1674 19.7264 46.1674 27.478C46.1674 35.2296 52.3686 41.3239 60.2806 41.3239C68.246 41.3239 74.5542 35.1761 74.5542 27.478C74.5542 19.7799 68.246 13.6855 60.334 13.6855ZM60.334 20.261C64.2366 20.261 67.1768 23.3616 67.1768 27.5314C67.1768 31.6478 64.2366 34.695 60.334 34.695C56.3781 34.695 53.4913 31.7013 53.4913 27.5314C53.4913 23.3082 56.3781 20.261 60.334 20.261Z" fill="#78379B"/>
<path d="M94.5692 13.6855C91.6289 13.6855 89.0094 14.7013 87.1384 16.412C86.7641 14.8082 85.4277 13.6855 83.7704 13.6855C81.739 13.6855 80.1887 15.2358 80.1887 17.3208V37.6887C80.1887 39.7736 81.739 41.3774 83.8239 41.3774C85.8553 41.3774 87.4057 39.827 87.4057 37.6887V25.2862C87.4057 22.2925 89.4906 20.1541 92.4308 20.1541C95.3711 20.1541 97.349 22.239 97.349 25.2862V37.6887C97.349 39.7736 98.8994 41.3774 100.931 41.3774C103.016 41.3774 104.513 39.827 104.513 37.6887V24.3239C104.513 17.8553 100.61 13.6855 94.5692 13.6855Z" fill="#78379B"/>
<path d="M123.702 13.6855C115.897 13.6855 109.963 19.673 109.963 27.5314C109.963 35.4434 116.111 41.3774 124.451 41.3774C127.551 41.3774 130.438 40.522 132.844 38.9182C134.127 38.0629 134.661 37.2075 134.661 36.0314C134.661 34.3742 133.378 33.1447 131.721 33.1447C131.187 33.1447 130.705 33.305 130.171 33.6258C128.567 34.6415 126.589 35.1761 124.665 35.1761C120.762 35.1761 118.089 33.2516 117.234 29.9371H132.309C134.661 29.9371 136.265 28.4937 136.265 26.2484V26.0881C136.265 18.9245 130.919 13.6855 123.702 13.6855ZM123.542 19.5126C126.91 19.5126 129.155 21.7044 129.262 24.8585H117.234C118.036 21.5975 120.388 19.5126 123.542 19.5126Z" fill="#78379B"/>
<path d="M163.235 13.6855C161.792 13.6855 160.562 14.4874 160.028 15.717L152.864 31.3805L145.861 15.717C145.327 14.434 144.097 13.6855 142.707 13.6855C140.782 13.6855 139.179 15.2893 139.179 17.1604C139.179 17.695 139.339 18.2296 139.66 18.8711L148.801 39.0252L147.839 41.1635C146.663 43.5692 145.113 44.5314 142.814 44.5314C142.654 44.5314 142.44 44.478 142.172 44.478C140.355 44.478 138.911 45.8145 138.911 47.5786C138.911 48.8082 139.606 49.9308 140.729 50.412C141.531 50.7862 142.6 51 143.776 51C148.588 51 151.795 48.5409 154.628 42.7138L166.282 18.8176C166.603 18.2296 166.71 17.695 166.71 17.1604C166.71 15.2893 165.106 13.6855 163.235 13.6855Z" fill="#78379B"/>
<path d="M192.883 21.6509C194.594 20.0472 195.503 17.9088 195.503 15.2893C195.503 9.46226 190.905 5.45283 184.33 5.45283H175.509C173.371 5.45283 171.821 7.00314 171.821 9.14151V37.0472C171.821 39.1855 173.371 40.7359 175.509 40.7359H187.537C194.38 40.7359 199.192 36.4591 199.192 30.3648C199.192 26.1415 196.839 23.0409 192.883 21.6509ZM183.795 11.6541C186.629 11.6541 188.393 13.1509 188.393 15.6635C188.393 18.1761 186.629 19.7264 183.795 19.7264H178.824V11.6541H183.795ZM187.003 34.5346H178.824V25.6604H187.003C190.157 25.6604 192.028 27.3176 192.028 30.0975C192.028 32.9308 190.157 34.5346 187.003 34.5346Z" fill="#F03291"/>
<path d="M216.786 13.6855C208.981 13.6855 203.047 19.673 203.047 27.5314C203.047 35.4434 209.195 41.3774 217.534 41.3774C220.635 41.3774 223.522 40.522 225.927 38.9182C227.21 38.0629 227.745 37.2075 227.745 36.0314C227.745 34.3742 226.462 33.1447 224.805 33.1447C224.27 33.1447 223.789 33.305 223.254 33.6258C221.651 34.6415 219.673 35.1761 217.748 35.1761C213.846 35.1761 211.173 33.2516 210.317 29.9371H225.393C227.745 29.9371 229.349 28.4937 229.349 26.2484V26.0881C229.349 18.9245 224.003 13.6855 216.786 13.6855ZM216.626 19.5126C219.993 19.5126 222.239 21.7044 222.346 24.8585H210.317C211.119 21.5975 213.471 19.5126 216.626 19.5126Z" fill="#F03291"/>
<path d="M238.615 0C236.53 0 234.98 1.60377 234.98 3.68868V37.6887C234.98 39.7736 236.53 41.3774 238.615 41.3774C240.647 41.3774 242.197 39.827 242.197 37.6887V3.68868C242.197 1.55031 240.7 0 238.615 0ZM258.609 35.8176L251.018 26.3019L257.754 19.4591C258.555 18.6572 258.93 17.8019 258.93 16.8931C258.93 15.0755 257.486 13.6855 255.615 13.6855C254.706 13.6855 253.798 14.0598 253.103 14.8082L244.656 23.6289C243.747 24.6447 243.373 25.3931 243.373 26.3019C243.373 27.1038 243.694 27.8522 244.496 28.9214L253.53 40.0409C254.225 40.9497 255.081 41.3774 256.203 41.3774C258.021 41.3774 259.464 39.934 259.464 38.0629C259.464 37.261 259.197 36.566 258.609 35.8176Z" fill="#F03291"/>
</svg>
